# xmcd
#
# Track frame offsets:
#	150
#	12611
#	29025
#	44464
#	58797
#	74346
#	88080
#	107209
#	125237
#	143104
#	158806
#	176913
#	186574
#	199477
#	210909
#	229488
#	238135
#	256604
#
# Disc length: 3657 seconds
#
# Revision: 1
# Processed by: cddbd v1.5PL3 Copyright (c) Steve Scherf et al.
# Submitted via: audiograbber 1.81.02
#
DISCID=1e0e4712
DTITLE=Nellie McKay - Get Away From Me
DYEAR=2004
DGENRE=Pop
TTITLE0=David
TTITLE1=Manhattan Avenue
TTITLE2=Sari
TTITLE3=Ding Dong
TTITLE4=Baby Watch Your Back
TTITLE5=The Dog Song
TTITLE6=Waiter
TTITLE7=I Wanna Get Married
TTITLE8=Change The World
TTITLE9=It's a Pose
TTITLE10=Toto Dies
TTITLE11=Won't U Please B Nice
TTITLE12=Inner Peace
TTITLE13=Suitcase Song
TTITLE14=Work Song
TTITLE15=Clonie
TTITLE16=Respectable
TTITLE17=Really
EXTD=
EXTT0=
EXTT1=
EXTT2=
EXTT3=
EXTT4=
EXTT5=
EXTT6=
EXTT7=
EXTT8=
EXTT9=
EXTT10=
EXTT11=
EXTT12=
EXTT13=
EXTT14=
EXTT15=
EXTT16=
EXTT17=
PLAYORDER=
